<svg xmlns="http://www.w3.org/2000/svg" xmlns:xlink="http://www.w3.org/1999/xlink" viewBox="0 0 28 30" version="1.1" x="0px" y="0px"><g stroke="none" stroke-width="1" fill="none" fill-rule="evenodd"><path d="M10.0008231,14 L11,14 C11.1081851,14 11.2134519,13.9649111 11.3,13.9 C11.5209139,13.7343146 11.5656854,13.4209139 11.4,13.2 L9.4,10.5333333 C9.37157288,10.4954305 9.33790283,10.4617605 9.3,10.4333333 C9.0790861,10.2676479 8.76568542,10.3124194 8.6,10.5333333 L6.6,13.2 C6.53508894,13.2865481 6.5,13.3918149 6.5,13.5 C6.5,13.7761424 6.72385763,14 7,14 L8.0008115,14 C8.00050348,15.0384873 8.26882874,16.0733202 8.80384757,17 C9.62550375,18.4231503 10.9155215,19.4023326 12.4574376,19.7979762 C13.9773963,20.1879857 15.6306341,19.9867562 17,19.1961524 C17.4782926,18.9200101 17.6421678,18.3084196 17.3660254,17.830127 C17.089883,17.3518344 16.4782926,17.1879592 16,17.4641016 C15.0933482,17.9875573 13.9779081,18.1233269 12.954519,17.8607333 C11.9335844,17.5987695 11.0886827,16.9574506 10.5358984,16 C10.1794278,15.3825749 10.0005469,14.6929644 10.0008231,14 Z M18.0673043,13 L17,13 C16.8918149,13 16.7865481,13.0350889 16.7,13.1 C16.4790861,13.2656854 16.4343146,13.5790861 16.6,13.8 L18.6,16.4666667 C18.6284271,16.5045695 18.6620972,16.5382395 18.7,16.5666667 C18.9209139,16.7323521 19.2343146,16.6875806 19.4,16.4666667 L21.4,13.8 C21.4649111,13.7134519 21.5,13.6081851 21.5,13.5 C21.5,13.2238576 21.2761424,13 21,13 L20.0674764,13 C20.0568816,11.985185 19.7879941,10.9762279 19.2629127,10.0667603 C18.4638883,8.68280934 17.1437152,7.68749262 15.6243063,7.27251875 C14.0949804,6.85483643 12.4750789,7.05751474 11.0667603,7.87060789 C10.5884677,8.14675026 10.4245925,8.75834067 10.7007349,9.23663329 C10.9768773,9.71492591 11.5884677,9.87880107 12.0667603,9.60265869 C13.0102884,9.05791252 14.0801935,8.92404847 15.0973746,9.20185622 C16.1156564,9.47996459 16.9994033,10.1462469 17.5308619,11.0667603 C17.8776124,11.6673498 18.0567864,12.3311658 18.0673043,13 Z M7,4 L7.96357472,1.7975435 C8.44130808,0.70558152 9.52015322,1.55121491e-15 10.7120467,1.33226763e-15 L13.8404624,0 L17.2879533,1.33226763e-15 C18.4798468,1.11332034e-15 19.5586919,0.70558152 20.0364253,1.7975435 L21,4 L24,4 C26.209139,4 28,5.790861 28,8 L28,20 C28,22.209139 26.209139,24 24,24 L4,24 C1.790861,24 2.705415e-16,22.209139 0,20 L0,8 C-2.705415e-16,5.790861 1.790861,4 4,4 L7,4 Z" fill="#000000"/></g></svg>