<svg xmlns="http://www.w3.org/2000/svg" version="1.1" viewBox="-5.0 -10.0 110.0 135.0">
 <path d="m58.332 4.1602h-37.5c-9.2031 0-16.668 7.4609-16.668 16.668v58.332c0 9.2031 7.4648 16.664 16.668 16.664h58.332c9.207 0 16.668-7.4609 16.668-16.664v-37.5h-8.332v37.5c0 4.6016-3.7305 8.332-8.3359 8.332h-58.332c-4.6055 0-8.332-3.7305-8.332-8.332v-58.332c0-4.6055 3.7266-8.3359 8.332-8.3359h37.5zm23.273 8.332-48.273 48.277v-10.961h-8.332v21.016c0 2.3008 1.8633 4.168 4.1641 4.168h21.02v-8.332h-10.961l48.277-48.277v10.961h8.332v-21.016c0-2.3008-1.8672-4.168-4.168-4.168h-21.016v8.332z" fill-rule="evenodd"/>
</svg>